<svg preserveAspectRatio="none" overflow="visible" style="display: block;" width="20" height="20" viewBox="0 0 20 20" fill="none" xmlns="http://www.w3.org/2000/svg">
<g id="Frame 16" clip-path="url(#clip0_0_495)">
<g clip-path="url(#paint0_angular_0_495_clip_path)" data-figma-skip-parse="true"><g transform="matrix(-0.00342226 0.00666878 -0.0046911 -0.00240736 2.08915 5.66598)"><foreignObject x="-1727.45" y="-1727.45" width="3454.89" height="3454.89"><div xmlns="http://www.w3.org/1999/xhtml" style="background:conic-gradient(from 90deg,rgba(27, 211, 219, 1) 0deg,rgba(0, 255, 209, 1) 31.1538deg,rgba(255, 114, 63, 1) 103.846deg,rgba(122, 63, 255, 1) 252.692deg,rgba(27, 211, 219, 1) 360deg);height:100%;width:100%;opacity:1"></div></foreignObject></g></g><path id="Vector" d="M6.65974 5.63904L8.27117 4.59919L8.27117 4.59918L6.65974 5.63904ZM4.73233 9.39488L4.82716 11.3103L4.82716 11.3103L4.73233 9.39488ZM0.820312 -3.41016L-0.791121 -2.3703L5.0483 6.67889L6.65974 5.63904L8.27117 4.59918L2.43175 -4.45001L0.820312 -3.41016ZM6.65974 5.63904L5.0483 6.67889C5.26513 7.0149 5.0369 7.45964 4.6375 7.47941L4.73233 9.39488L4.82716 11.3103C8.17561 11.1446 10.089 7.41615 8.27117 4.59919L6.65974 5.63904ZM4.73233 9.39488L4.6375 7.47941L-6.11904 8.01193L-6.02421 9.9274L-5.92938 11.8429L4.82716 11.3103L4.73233 9.39488Z" data-figma-gradient-fill="{&#34;type&#34;:&#34;GRADIENT_ANGULAR&#34;,&#34;stops&#34;:[{&#34;color&#34;:{&#34;r&#34;:0.0,&#34;g&#34;:1.0,&#34;b&#34;:0.81960785388946533,&#34;a&#34;:1.0},&#34;position&#34;:0.086538463830947876},{&#34;color&#34;:{&#34;r&#34;:1.0,&#34;g&#34;:0.44705882668495178,&#34;b&#34;:0.24705882370471954,&#34;a&#34;:1.0},&#34;position&#34;:0.28846153616905212},{&#34;color&#34;:{&#34;r&#34;:0.47843137383460999,&#34;g&#34;:0.24705882370471954,&#34;b&#34;:1.0,&#34;a&#34;:1.0},&#34;position&#34;:0.70192307233810425}],&#34;transform&#34;:{&#34;m00&#34;:-6.8445200920104980,&#34;m01&#34;:-9.3821954727172852,&#34;m02&#34;:10.202507972717285,&#34;m10&#34;:13.337554931640625,&#34;m11&#34;:-4.8147225379943848,&#34;m12&#34;:1.4045664072036743},&#34;opacity&#34;:1.0,&#34;blendMode&#34;:&#34;NORMAL&#34;,&#34;stopsVar&#34;:[{&#34;color&#34;:{&#34;r&#34;:0.0,&#34;g&#34;:1.0,&#34;b&#34;:0.81960785388946533,&#34;a&#34;:1.0},&#34;position&#34;:0.086538463830947876},{&#34;color&#34;:{&#34;r&#34;:1.0,&#34;g&#34;:0.44705882668495178,&#34;b&#34;:0.24705882370471954,&#34;a&#34;:1.0},&#34;position&#34;:0.28846153616905212},{&#34;color&#34;:{&#34;r&#34;:0.47843137383460999,&#34;g&#34;:0.24705882370471954,&#34;b&#34;:1.0,&#34;a&#34;:1.0},&#34;position&#34;:0.70192307233810425}],&#34;visible&#34;:true}"/>
<g clip-path="url(#paint1_angular_0_495_clip_path)" data-figma-skip-parse="true"><g transform="matrix(0.00666878 0.00342226 0.00240736 -0.0046911 14.3395 2.07039)"><foreignObject x="-1727.45" y="-1727.45" width="3454.89" height="3454.89"><div xmlns="http://www.w3.org/1999/xhtml" style="background:conic-gradient(from 90deg,rgba(27, 211, 219, 1) 0deg,rgba(0, 255, 209, 1) 31.1538deg,rgba(255, 114, 63, 1) 103.846deg,rgba(122, 63, 255, 1) 252.692deg,rgba(27, 211, 219, 1) 360deg);height:100%;width:100%;opacity:1"></div></foreignObject></g></g><path id="Vector_2" d="M10.6107 4.71358L8.69519 4.80841L8.69519 4.80841L10.6107 4.71358ZM14.3665 6.64098L15.4064 8.25242L15.4064 8.25242L14.3665 6.64098ZM10.0781 -6.04297L11.9936 -6.1378L12.5261 4.61874L10.6107 4.71358L8.69519 4.80841L8.16266 -5.94814L10.0781 -6.04297ZM10.6107 4.71358L12.5261 4.61874C12.5459 5.01814 12.9906 5.24637 13.3266 5.02955L14.3665 6.64098L15.4064 8.25242C12.5894 10.0702 8.86097 8.15686 8.69519 4.80841L10.6107 4.71358ZM14.3665 6.64098L13.3266 5.02955L22.3758 -0.809882L23.4157 0.80155L24.4555 2.41298L15.4064 8.25242L14.3665 6.64098Z" data-figma-gradient-fill="{&#34;type&#34;:&#34;GRADIENT_ANGULAR&#34;,&#34;stops&#34;:[{&#34;color&#34;:{&#34;r&#34;:0.0,&#34;g&#34;:1.0,&#34;b&#34;:0.81960785388946533,&#34;a&#34;:1.0},&#34;position&#34;:0.086538463830947876},{&#34;color&#34;:{&#34;r&#34;:1.0,&#34;g&#34;:0.44705882668495178,&#34;b&#34;:0.24705882370471954,&#34;a&#34;:1.0},&#34;position&#34;:0.28846153616905212},{&#34;color&#34;:{&#34;r&#34;:0.47843137383460999,&#34;g&#34;:0.24705882370471954,&#34;b&#34;:1.0,&#34;a&#34;:1.0},&#34;position&#34;:0.70192307233810425}],&#34;transform&#34;:{&#34;m00&#34;:13.337555885314941,&#34;m01&#34;:4.8147215843200684,&#34;m02&#34;:5.2634034156799316,&#34;m10&#34;:6.8445181846618652,&#34;m11&#34;:-9.3821964263916016,&#34;m12&#34;:3.3392276763916016},&#34;opacity&#34;:1.0,&#34;blendMode&#34;:&#34;NORMAL&#34;,&#34;stopsVar&#34;:[{&#34;color&#34;:{&#34;r&#34;:0.0,&#34;g&#34;:1.0,&#34;b&#34;:0.81960785388946533,&#34;a&#34;:1.0},&#34;position&#34;:0.086538463830947876},{&#34;color&#34;:{&#34;r&#34;:1.0,&#34;g&#34;:0.44705882668495178,&#34;b&#34;:0.24705882370471954,&#34;a&#34;:1.0},&#34;position&#34;:0.28846153616905212},{&#34;color&#34;:{&#34;r&#34;:0.47843137383460999,&#34;g&#34;:0.24705882370471954,&#34;b&#34;:1.0,&#34;a&#34;:1.0},&#34;position&#34;:0.70192307233810425}],&#34;visible&#34;:true}"/>
<g clip-path="url(#paint2_angular_0_495_clip_path)" data-figma-skip-parse="true"><g transform="matrix(0.00342226 -0.00666878 0.0046911 0.00240736 17.9167 14.334)"><foreignObject x="-1727.45" y="-1727.45" width="3454.89" height="3454.89"><div xmlns="http://www.w3.org/1999/xhtml" style="background:conic-gradient(from 90deg,rgba(27, 211, 219, 1) 0deg,rgba(0, 255, 209, 1) 31.1538deg,rgba(255, 114, 63, 1) 103.846deg,rgba(122, 63, 255, 1) 252.692deg,rgba(27, 211, 219, 1) 360deg);height:100%;width:100%;opacity:1"></div></foreignObject></g></g><path id="Vector_3" d="M13.3461 14.361L11.7347 15.4008L11.7347 15.4008L13.3461 14.361ZM15.2735 10.6051L15.1787 8.68965L15.1787 8.68965L15.2735 10.6051ZM19.1855 23.4102L20.797 22.3703L14.9576 13.3211L13.3461 14.361L11.7347 15.4008L17.5741 24.45L19.1855 23.4102ZM13.3461 14.361L14.9576 13.3211C14.7407 12.9851 14.969 12.5404 15.3684 12.5206L15.2735 10.6051L15.1787 8.68965C11.8302 8.85543 9.91691 12.5838 11.7347 15.4008L13.3461 14.361ZM15.2735 10.6051L15.3684 12.5206L26.1249 11.9881L26.0301 10.0726L25.9352 8.15713L15.1787 8.68965L15.2735 10.6051Z" data-figma-gradient-fill="{&#34;type&#34;:&#34;GRADIENT_ANGULAR&#34;,&#34;stops&#34;:[{&#34;color&#34;:{&#34;r&#34;:0.0,&#34;g&#34;:1.0,&#34;b&#34;:0.81960785388946533,&#34;a&#34;:1.0},&#34;position&#34;:0.086538463830947876},{&#34;color&#34;:{&#34;r&#34;:1.0,&#34;g&#34;:0.44705882668495178,&#34;b&#34;:0.24705882370471954,&#34;a&#34;:1.0},&#34;position&#34;:0.28846153616905212},{&#34;color&#34;:{&#34;r&#34;:0.47843137383460999,&#34;g&#34;:0.24705882370471954,&#34;b&#34;:1.0,&#34;a&#34;:1.0},&#34;position&#34;:0.70192307233810425}],&#34;transform&#34;:{&#34;m00&#34;:6.8445200920104980,&#34;m01&#34;:9.3821954727172852,&#34;m02&#34;:9.8033514022827148,&#34;m10&#34;:-13.337554931640625,&#34;m11&#34;:4.8147225379943848,&#34;m12&#34;:18.595434188842773},&#34;opacity&#34;:1.0,&#34;blendMode&#34;:&#34;NORMAL&#34;,&#34;stopsVar&#34;:[{&#34;color&#34;:{&#34;r&#34;:0.0,&#34;g&#34;:1.0,&#34;b&#34;:0.81960785388946533,&#34;a&#34;:1.0},&#34;position&#34;:0.086538463830947876},{&#34;color&#34;:{&#34;r&#34;:1.0,&#34;g&#34;:0.44705882668495178,&#34;b&#34;:0.24705882370471954,&#34;a&#34;:1.0},&#34;position&#34;:0.28846153616905212},{&#34;color&#34;:{&#34;r&#34;:0.47843137383460999,&#34;g&#34;:0.24705882370471954,&#34;b&#34;:1.0,&#34;a&#34;:1.0},&#34;position&#34;:0.70192307233810425}],&#34;visible&#34;:true}"/>
<g clip-path="url(#paint3_angular_0_495_clip_path)" data-figma-skip-parse="true"><g transform="matrix(-0.00666878 -0.00342226 -0.00240736 0.0046911 5.66046 17.9296)"><foreignObject x="-1727.45" y="-1727.45" width="3454.89" height="3454.89"><div xmlns="http://www.w3.org/1999/xhtml" style="background:conic-gradient(from 90deg,rgba(27, 211, 219, 1) 0deg,rgba(0, 255, 209, 1) 31.1538deg,rgba(255, 114, 63, 1) 103.846deg,rgba(122, 63, 255, 1) 252.692deg,rgba(27, 211, 219, 1) 360deg);height:100%;width:100%;opacity:1"></div></foreignObject></g></g><path id="Vector_4" d="M9.38934 15.2864L11.3048 15.1916L11.3048 15.1916L9.38934 15.2864ZM5.6335 13.359L4.59364 11.7476L4.59365 11.7476L5.6335 13.359ZM9.92188 26.043L8.00641 26.1378L7.47387 15.3813L9.38934 15.2864L11.3048 15.1916L11.8373 25.9481L9.92188 26.043ZM9.38934 15.2864L7.47387 15.3813C7.4541 14.9819 7.00936 14.7536 6.67335 14.9705L5.6335 13.359L4.59365 11.7476C7.41061 9.9298 11.139 11.8431 11.3048 15.1916L9.38934 15.2864ZM5.6335 13.359L6.67336 14.9704L-2.37582 20.8099L-3.41568 19.1985L-4.45554 17.587L4.59364 11.7476L5.6335 13.359Z" data-figma-gradient-fill="{&#34;type&#34;:&#34;GRADIENT_ANGULAR&#34;,&#34;stops&#34;:[{&#34;color&#34;:{&#34;r&#34;:0.0,&#34;g&#34;:1.0,&#34;b&#34;:0.81960785388946533,&#34;a&#34;:1.0},&#34;position&#34;:0.086538463830947876},{&#34;color&#34;:{&#34;r&#34;:1.0,&#34;g&#34;:0.44705882668495178,&#34;b&#34;:0.24705882370471954,&#34;a&#34;:1.0},&#34;position&#34;:0.28846153616905212},{&#34;color&#34;:{&#34;r&#34;:0.47843137383460999,&#34;g&#34;:0.24705882370471954,&#34;b&#34;:1.0,&#34;a&#34;:1.0},&#34;position&#34;:0.70192307233810425}],&#34;transform&#34;:{&#34;m00&#34;:-13.337555885314941,&#34;m01&#34;:-4.8147215843200684,&#34;m02&#34;:14.736596107482910,&#34;m10&#34;:-6.8445181846618652,&#34;m11&#34;:9.3821964263916016,&#34;m12&#34;:16.660772323608398},&#34;opacity&#34;:1.0,&#34;blendMode&#34;:&#34;NORMAL&#34;,&#34;stopsVar&#34;:[{&#34;color&#34;:{&#34;r&#34;:0.0,&#34;g&#34;:1.0,&#34;b&#34;:0.81960785388946533,&#34;a&#34;:1.0},&#34;position&#34;:0.086538463830947876},{&#34;color&#34;:{&#34;r&#34;:1.0,&#34;g&#34;:0.44705882668495178,&#34;b&#34;:0.24705882370471954,&#34;a&#34;:1.0},&#34;position&#34;:0.28846153616905212},{&#34;color&#34;:{&#34;r&#34;:0.47843137383460999,&#34;g&#34;:0.24705882370471954,&#34;b&#34;:1.0,&#34;a&#34;:1.0},&#34;position&#34;:0.70192307233810425}],&#34;visible&#34;:true}"/>
</g>
<defs>
<clipPath id="paint0_angular_0_495_clip_path"><path id="Vector" d="M6.65974 5.63904L8.27117 4.59919L8.27117 4.59918L6.65974 5.63904ZM4.73233 9.39488L4.82716 11.3103L4.82716 11.3103L4.73233 9.39488ZM0.820312 -3.41016L-0.791121 -2.3703L5.0483 6.67889L6.65974 5.63904L8.27117 4.59918L2.43175 -4.45001L0.820312 -3.41016ZM6.65974 5.63904L5.0483 6.67889C5.26513 7.0149 5.0369 7.45964 4.6375 7.47941L4.73233 9.39488L4.82716 11.3103C8.17561 11.1446 10.089 7.41615 8.27117 4.59919L6.65974 5.63904ZM4.73233 9.39488L4.6375 7.47941L-6.11904 8.01193L-6.02421 9.9274L-5.92938 11.8429L4.82716 11.3103L4.73233 9.39488Z"/></clipPath><clipPath id="paint1_angular_0_495_clip_path"><path id="Vector_2" d="M10.6107 4.71358L8.69519 4.80841L8.69519 4.80841L10.6107 4.71358ZM14.3665 6.64098L15.4064 8.25242L15.4064 8.25242L14.3665 6.64098ZM10.0781 -6.04297L11.9936 -6.1378L12.5261 4.61874L10.6107 4.71358L8.69519 4.80841L8.16266 -5.94814L10.0781 -6.04297ZM10.6107 4.71358L12.5261 4.61874C12.5459 5.01814 12.9906 5.24637 13.3266 5.02955L14.3665 6.64098L15.4064 8.25242C12.5894 10.0702 8.86097 8.15686 8.69519 4.80841L10.6107 4.71358ZM14.3665 6.64098L13.3266 5.02955L22.3758 -0.809882L23.4157 0.80155L24.4555 2.41298L15.4064 8.25242L14.3665 6.64098Z"/></clipPath><clipPath id="paint2_angular_0_495_clip_path"><path id="Vector_3" d="M13.3461 14.361L11.7347 15.4008L11.7347 15.4008L13.3461 14.361ZM15.2735 10.6051L15.1787 8.68965L15.1787 8.68965L15.2735 10.6051ZM19.1855 23.4102L20.797 22.3703L14.9576 13.3211L13.3461 14.361L11.7347 15.4008L17.5741 24.45L19.1855 23.4102ZM13.3461 14.361L14.9576 13.3211C14.7407 12.9851 14.969 12.5404 15.3684 12.5206L15.2735 10.6051L15.1787 8.68965C11.8302 8.85543 9.91691 12.5838 11.7347 15.4008L13.3461 14.361ZM15.2735 10.6051L15.3684 12.5206L26.1249 11.9881L26.0301 10.0726L25.9352 8.15713L15.1787 8.68965L15.2735 10.6051Z"/></clipPath><clipPath id="paint3_angular_0_495_clip_path"><path id="Vector_4" d="M9.38934 15.2864L11.3048 15.1916L11.3048 15.1916L9.38934 15.2864ZM5.6335 13.359L4.59364 11.7476L4.59365 11.7476L5.6335 13.359ZM9.92188 26.043L8.00641 26.1378L7.47387 15.3813L9.38934 15.2864L11.3048 15.1916L11.8373 25.9481L9.92188 26.043ZM9.38934 15.2864L7.47387 15.3813C7.4541 14.9819 7.00936 14.7536 6.67335 14.9705L5.6335 13.359L4.59365 11.7476C7.41061 9.9298 11.139 11.8431 11.3048 15.1916L9.38934 15.2864ZM5.6335 13.359L6.67336 14.9704L-2.37582 20.8099L-3.41568 19.1985L-4.45554 17.587L4.59364 11.7476L5.6335 13.359Z"/></clipPath><clipPath id="clip0_0_495">
<rect width="20" height="20" fill="white"/>
</clipPath>
</defs>
</svg>
