<svg preserveAspectRatio="none" overflow="visible" style="display: block;" width="12" height="12" viewBox="0 0 12 12" fill="none" xmlns="http://www.w3.org/2000/svg">
<path id="Vector" d="M8.78549 0.220554C8.49412 -0.0722657 8.02072 -0.0737633 7.72635 0.217559C7.64845 0.295444 7.59452 0.387559 7.55781 0.483418C6.93461 1.78351 6.24849 2.51668 5.3826 2.94955C4.4111 3.42884 3.29578 3.7621 1.49808 3.7621C1.40071 3.7621 1.30333 3.78082 1.21195 3.81902C1.02843 3.89541 0.883118 4.04144 0.806716 4.22417C0.731063 4.4069 0.731063 4.6136 0.806716 4.79633C0.844917 4.88845 0.899597 4.97157 0.969258 5.04047L3.39839 7.46916L0 12L4.53169 8.60224L6.96008 11.0302C7.02899 11.1006 7.11214 11.1545 7.20427 11.1927C7.29565 11.2309 7.39303 11.2511 7.4904 11.2511C7.58778 11.2511 7.68515 11.2309 7.77653 11.1927C7.96005 11.1163 8.10611 10.9718 8.18177 10.7875C8.21997 10.6969 8.23944 10.5988 8.23944 10.5022C8.23944 8.70484 8.57202 7.58973 9.05065 6.63338C9.48285 5.76766 10.2162 5.08166 11.5172 4.45858C11.6139 4.42188 11.7052 4.36796 11.7824 4.29008C12.0738 3.99576 12.0723 3.52245 11.7794 3.23113L8.78549 0.220554Z" fill="#E7E7E7"/>
</svg>
