<svg preserveAspectRatio="none" overflow="visible" style="display: block;" width="14" height="14" viewBox="0 0 14 14" fill="none" xmlns="http://www.w3.org/2000/svg">
<g id="level">
<path id="Vector" d="M1.28333 8.17833C1.82583 10.8383 4.17667 12.8333 7 12.8333C9.81167 12.8333 12.1567 10.8442 12.7108 8.19583" stroke="black" stroke-width="1.13" stroke-linecap="round" stroke-linejoin="round"/>
<path id="Vector_2" d="M12.7225 5.86833C12.1975 3.185 9.835 1.16667 7 1.16667C4.1825 1.16667 1.83167 3.16751 1.28333 5.82167" stroke="black" stroke-width="1.13" stroke-linecap="round" stroke-linejoin="round"/>
<path id="Vector_3" d="M7 7.875C7.48325 7.875 7.875 7.48325 7.875 7C7.875 6.51675 7.48325 6.125 7 6.125C6.51675 6.125 6.125 6.51675 6.125 7C6.125 7.48325 6.51675 7.875 7 7.875Z" stroke="black" stroke-width="1.13" stroke-linecap="round" stroke-linejoin="round"/>
<path id="Vector_4" opacity="0" d="M13.4346 0.56543V13.4346H0.56543V0.56543H13.4346Z" stroke="black" stroke-width="1.13"/>
</g>
</svg>
