<svg preserveAspectRatio="none" overflow="visible" style="display: block;" width="9" height="9" viewBox="0 0 9 9" fill="none" xmlns="http://www.w3.org/2000/svg">
<g id="audio-square">
<path id="Vector" d="M8.25 5.625V3.375C8.25 1.5 7.5 0.75 5.625 0.75H3.375C1.5 0.75 0.75 1.5 0.75 3.375V5.625C0.75 7.5 1.5 8.25 3.375 8.25H5.625C7.5 8.25 8.25 7.5 8.25 5.625Z" stroke="white" stroke-width="0.8625" stroke-linecap="round" stroke-linejoin="round"/>
<g id="Group">
<path id="Vector_2" d="M3.6075 6.4875C4.04656 6.4875 4.4025 6.13156 4.4025 5.6925C4.4025 5.25343 4.04656 4.8975 3.6075 4.8975C3.16843 4.8975 2.8125 5.25343 2.8125 5.6925C2.8125 6.13156 3.16843 6.4875 3.6075 6.4875Z" stroke="white" stroke-width="0.8625" stroke-linecap="round" stroke-linejoin="round"/>
<path id="Vector_3" d="M4.4025 5.6925V2.91376" stroke="white" stroke-width="0.8625" stroke-linecap="round" stroke-linejoin="round"/>
<path id="Vector_4" d="M4.92375 2.53876L5.80124 2.83125C6.01499 2.9025 6.1875 3.1425 6.1875 3.3675V3.6C6.1875 3.90375 5.95124 4.0725 5.66624 3.975L4.78876 3.68251C4.57501 3.61126 4.4025 3.37126 4.4025 3.14626V2.91376C4.4025 2.61376 4.635 2.44126 4.92375 2.53876Z" stroke="white" stroke-width="0.8625" stroke-linecap="round" stroke-linejoin="round"/>
</g>
<g id="Vector_5" opacity="0">
</g>
</g>
</svg>
